<?xml version="1.0" encoding="UTF-8" standalone="no"?>
<svg
   width="24"
   height="24"
   viewBox="0 0 48 48"
   fill="none"
   version="1.1"
   id="svg5"
   sodipodi:docname="工具箱_toolkit.svg"
   xmlns:inkscape="http://www.inkscape.org/namespaces/inkscape"
   xmlns:sodipodi="http://sodipodi.sourceforge.net/DTD/sodipodi-0.dtd"
   xmlns="http://www.w3.org/2000/svg"
   xmlns:svg="http://www.w3.org/2000/svg">
  <defs
     id="defs5" />
  <sodipodi:namedview
     id="namedview5"
     pagecolor="#ffffff"
     bordercolor="#666666"
     borderopacity="1.0"
     inkscape:showpageshadow="2"
     inkscape:pageopacity="0.0"
     inkscape:pagecheckerboard="0"
     inkscape:deskcolor="#d1d1d1" />
  <path
     d="m 8,25 v 13 c 0,1.6569 1.34315,3 3,3 h 26 c 1.6569,0 3,-1.3431 3,-3 V 25"
     stroke="#333333"
     stroke-width="4"
     stroke-linecap="round"
     stroke-linejoin="round"
     id="path1" />
  <path
     d="m 5,15 c 0,-1.1046 0.89543,-2 2,-2 h 34 c 1.1046,0 2,0.8954 2,2 v 8 c 0,1.1046 -0.8954,2 -2,2 H 7 C 5.89543,25 5,24.1046 5,23 Z"
     fill="none"
     stroke="#333333"
     stroke-width="4"
     stroke-linejoin="round"
     id="path2" />
  <path
     d="M 31,13 V 9 C 31,7.89543 30.1046,7 29,7 H 19 c -1.1046,0 -2,0.89543 -2,2 v 4"
     stroke="#333333"
     stroke-width="4"
     stroke-linecap="round"
     stroke-linejoin="round"
     id="path3" />
  <path
     d="m 15,23 v 6"
     stroke="#333333"
     stroke-width="4"
     stroke-linecap="round"
     stroke-linejoin="round"
     id="path4" />
  <path
     d="m 33,23 v 6"
     stroke="#333333"
     stroke-width="4"
     stroke-linecap="round"
     stroke-linejoin="round"
     id="path5" />
</svg>
